HIERARCHY
ROOT Hips
{
	OFFSET 0.00000 0.00000 0.00000
	CHANNELS 6 Xposition Yposition Zposition Zrotation Yrotation Xrotation 
	JOINT RightUpLegDummy
	{
		OFFSET 0 0 0
		CHANNELS 3 Zrotation Yrotation Xrotation
		JOINT RightUpLeg
		{
			OFFSET -3.52197 -3.41223 0.04002
			CHANNELS 3 Zrotation Yrotation Xrotation
			JOINT RightLeg
			{
				OFFSET 0.00006 -17.42390 1.60435
				CHANNELS 3 Zrotation Yrotation Xrotation
				JOINT RightFoot
				{
					OFFSET 0.06154 -16.50078 -1.63900
					CHANNELS 3 Zrotation Yrotation Xrotation
					JOINT RightToes
					{
						OFFSET 0.00298 -1.73825 3.34613
						CHANNELS 3 Zrotation Yrotation Xrotation
						End Site
						{
							OFFSET 0.00480 -0.05416 3.85043
						}
					}
				}
			}
		}
	}
	JOINT SpineDummy
	{
		OFFSET 0 0 0
		CHANNELS 3 Zrotation Yrotation Xrotation
		JOINT Spine
		{
			OFFSET 0.00000 4.68130 0.00000
			CHANNELS 3 Zrotation Yrotation Xrotation
			JOINT Spine1
			{
				OFFSET -0.00000 10.10138 0.05002
				CHANNELS 3 Zrotation Yrotation Xrotation
				JOINT HEadDummy
				{
					OFFSET 0 0 0
					CHANNELS 3 Zrotation Yrotation Xrotation
					JOINT Head
					{
						OFFSET -0.00000 3.43865 0.00438
						CHANNELS 3 Zrotation Yrotation Xrotation
						End Site
						{
							OFFSET -0.11417 5.02924 0.98962
						}
					}
				}
				JOINT LeftShoulder1Dummy
				{
					OFFSET 0 0 0
					CHANNELS 3 Zrotation Yrotation Xrotation
					JOINT LeftShoulder1
					{
						OFFSET 3.53937 -0.14262 -0.08662
						CHANNELS 3 Zrotation Yrotation Xrotation
						JOINT LeftArm
						{
							OFFSET 4.04833 -0.00133 0.12681
							CHANNELS 3 Zrotation Yrotation Xrotation
							JOINT LeftForeArm
							{
								OFFSET 10.33880 -0.01036 -0.55515
								CHANNELS 3 Zrotation Yrotation Xrotation
								JOINT LeftHand
								{
									OFFSET 8.69677 0.07543 0.40060
									CHANNELS 3 Zrotation Yrotation Xrotation
									End Site
									{
										OFFSET 5.28377 -0.21905 0.59205
									}
								}
							}
						}
					}
				}
				JOINT RightShoulderDummy
				{
					OFFSET 0 0 0
					CHANNELS 3 Zrotation Yrotation Xrotation
					JOINT RightShoulder
					{
						OFFSET -3.53937 -0.14262 -0.08660
						CHANNELS 3 Zrotation Yrotation Xrotation
						JOINT RightArm
						{
							OFFSET -4.04833 -0.00133 0.12683
							CHANNELS 3 Zrotation Yrotation Xrotation
							JOINT RightForeArm
							{
								OFFSET -10.37987 -0.01039 -0.55511
								CHANNELS 3 Zrotation Yrotation Xrotation
								JOINT RightHand
								{
									OFFSET -8.67398 0.07538 0.40058
									CHANNELS 3 Zrotation Yrotation Xrotation
									End Site
									{
										OFFSET -5.24810 -0.21916 0.59204
									}
								}
							}
						}
					}
				}
			}
		}
	}
	JOINT LeftUpLegDummy
	{
		OFFSET 0 0 0
		CHANNELS 3 Zrotation Yrotation Xrotation
		JOINT LeftUpLeg
		{
			OFFSET 3.52197 -3.41223 0.04002
			CHANNELS 3 Zrotation Yrotation Xrotation
			JOINT LeftLeg
			{
				OFFSET -0.00012 -17.42399 1.60337
				CHANNELS 3 Zrotation Yrotation Xrotation
				JOINT LeftFoot
				{
					OFFSET -0.09972 -16.50070 -1.63802
					CHANNELS 3 Zrotation Yrotation Xrotation
					JOINT LeftToes
					{
						OFFSET -0.01575 -1.73823 3.34611
						CHANNELS 3 Zrotation Yrotation Xrotation
						End Site
						{
							OFFSET 0.03150 -0.01868 3.85031
						}
					}
				}
			}
		}
	}
}
MOTION
Frames: 15
Frame Time: 0.033333
-1.8818 39.1109 8.9487 174.9030 75.2124 176.6300 0.0000 0.0000 0.0000 -5.8139 -0.3581 -18.6655 1.7714 6.0689 15.7383 15.5688 -1.9987 3.2898 0.0000 0.0000 -0.0000 0.0000 0.0000 0.0000 -15.3696 -2.7526 19.6092 12.2417 -6.7613 -8.5453 0.0000 0.0000 0.0000 -6.8006 27.9702 -20.9681 0.0000 0.0000 0.0000 23.2106 11.4614 0.9532 28.2910 -50.2551 -93.3316 -4.6161 -60.2851 -44.5781 26.4575 1.8923 -0.8112 0.0000 0.0000 0.0000 -12.9016 -2.2275 -0.0363 36.1748 16.2331 -1.7667 176.8146 69.2520 161.2765 -14.7256 2.5494 -0.9890 0.0000 0.0000 0.0000 3.5449 6.3058 0.3989 2.0837 2.3603 30.2733 -19.5143 0.8373 -6.7048 0.0000 0.0000 0.0000
-1.7325 39.3073 8.6881 172.3600 75.8941 174.0280 0.0000 0.0000 0.0000 -6.4111 -1.6030 -17.8528 2.1299 8.0995 14.6424 16.7285 -2.3792 4.8661 0.0000 0.0000 -0.0000 0.0000 0.0000 0.0000 -14.0443 -3.1126 18.9220 11.0891 -6.6815 -8.3294 0.0000 0.0000 0.0000 -6.8149 28.1662 -19.8587 0.0000 0.0000 0.0000 22.2780 10.4022 0.7685 22.7192 -49.0760 -84.6792 -4.6024 -62.3827 -38.5849 26.2226 0.6241 -1.0876 0.0000 0.0000 0.0000 -13.8379 -2.9245 -0.0212 33.6180 15.8494 -3.2642 176.2899 70.2439 157.7556 -14.3137 2.2098 -0.9211 0.0000 0.0000 0.0000 2.4546 6.3122 0.7647 2.8005 3.3941 29.9679 -20.0213 1.3472 -3.8432 0.0000 0.0000 0.0000
-1.5915 39.4439 8.4442 170.0790 76.9098 171.6850 0.0000 0.0000 0.0000 -6.9016 -1.7832 -17.4163 2.2883 9.3115 14.0808 17.1934 -2.6067 5.9316 0.0000 0.0000 -0.0000 0.0000 0.0000 0.0000 -13.1207 -3.3582 17.9961 10.4529 -6.6486 -7.6457 0.0000 0.0000 0.0000 -6.9755 28.3615 -18.7443 0.0000 0.0000 0.0000 21.1155 9.2360 0.5784 16.6840 -47.0887 -75.8939 -4.8488 -65.2121 -34.7898 25.3986 0.3225 -1.1180 0.0000 0.0000 0.0000 -14.3368 -3.5896 0.0033 30.9956 15.9400 -4.4879 175.7029 71.4939 154.4906 -13.9763 1.8550 -0.8582 0.0000 0.0000 0.0000 1.8492 6.9666 1.1581 2.7164 3.2998 29.7754 -20.6413 1.8023 -1.5018 0.0000 0.0000 0.0000
-1.4440 39.5091 8.2183 167.2370 78.1140 168.8050 0.0000 0.0000 0.0000 -7.4394 -0.7083 -17.2517 2.1049 9.2694 14.0030 16.6175 -2.5540 6.1738 0.0000 0.0000 -0.0000 0.0000 0.0000 0.0000 -12.7964 -3.5669 17.0873 10.3406 -6.7624 -6.9058 0.0000 0.0000 0.0000 -6.9534 28.6302 -17.3729 0.0000 0.0000 0.0000 19.8444 8.3267 0.4317 10.6263 -44.5272 -67.3173 -5.3529 -68.6292 -31.7508 24.0833 0.2427 -1.0741 0.0000 0.0000 0.0000 -14.2106 -4.0756 0.0227 28.6966 16.0679 -5.3509 175.1341 72.8733 152.1750 -14.1444 1.7572 -0.8578 0.0000 0.0000 0.0000 1.4722 8.5003 1.6910 2.0359 2.3678 29.4797 -20.9682 2.1166 0.0823 0.0000 0.0000 0.0000
-1.3448 39.4776 8.0123 164.2010 78.9015 165.7060 0.0000 0.0000 0.0000 -8.2111 0.9625 -17.4432 1.8516 8.1432 14.7116 15.6979 -2.3283 5.5811 0.0000 0.0000 -0.0000 0.0000 0.0000 0.0000 -12.8851 -3.8988 16.9932 10.8271 -7.1740 -6.8319 0.0000 0.0000 0.0000 -6.7203 28.7193 -15.5704 0.0000 0.0000 0.0000 18.3741 7.7047 0.3216 5.4393 -41.5391 -59.1581 -5.9522 -71.9227 -28.1796 22.7050 -0.1281 -1.0823 0.0000 0.0000 0.0000 -13.5062 -4.3607 0.0289 27.3721 15.5317 -5.6219 174.8028 73.9366 151.6734 -14.2752 1.9179 -0.8845 0.0000 0.0000 0.0000 1.1792 10.3275 1.7353 1.4236 1.4560 30.0893 -20.8947 2.2975 1.1249 0.0000 0.0000 0.0000
-1.3535 39.3178 7.8275 163.3310 79.0284 164.7030 0.0000 0.0000 0.0000 -8.9981 2.2989 -18.1316 1.9724 6.7546 16.4175 15.4071 -2.1141 4.3215 0.0000 0.0000 -0.0000 0.0000 0.0000 0.0000 -12.8595 -4.2611 17.7338 11.9615 -7.7335 -7.1003 0.0000 0.0000 0.0000 -6.7269 28.2172 -13.6818 0.0000 0.0000 0.0000 16.5677 6.9860 0.2117 1.6310 -38.3081 -52.0877 -6.6116 -74.7375 -24.4109 21.6518 -0.3988 -1.0803 0.0000 0.0000 0.0000 -12.6191 -4.6922 0.0307 27.2608 13.8586 -5.7254 174.8762 74.2629 153.0057 -14.0131 2.1290 -0.8919 0.0000 0.0000 0.0000 1.3108 11.3263 0.6155 0.5384 0.2102 32.7463 -21.2610 2.4332 1.6356 0.0000 0.0000 0.0000
-1.4747 39.0076 7.6585 165.9890 78.9890 167.1160 0.0000 0.0000 0.0000 -9.1867 2.8771 -19.3249 2.4569 5.9664 19.0334 15.6156 -1.8957 2.4893 0.0000 0.0000 -0.0000 0.0000 0.0000 0.0000 -12.3481 -4.4121 18.6093 13.5892 -8.1376 -6.7658 0.0000 0.0000 0.0000 -7.1836 27.2968 -12.0518 0.0000 0.0000 0.0000 14.5659 6.0277 0.1087 -1.3594 -35.1793 -46.3947 -7.5640 -77.4007 -20.8538 21.3142 -0.4159 -1.0660 0.0000 0.0000 0.0000 -11.7593 -5.2572 0.0321 28.0489 11.3727 -6.4305 175.1070 74.1706 154.6091 -13.7779 2.1527 -0.8791 0.0000 0.0000 0.0000 2.2390 10.6817 -1.4706 -2.0699 -2.6125 37.2456 -22.8516 2.5025 1.0636 0.0000 0.0000 0.0000
-1.6775 38.5803 7.4975 170.6740 79.3677 171.4530 0.0000 0.0000 0.0000 -8.5682 3.1997 -20.9187 2.7908 5.6882 22.2007 15.3577 -1.5845 0.3728 0.0000 0.0000 -0.0000 0.0000 0.0000 0.0000 -11.7277 -4.2190 19.2707 15.5843 -8.3223 -5.6106 0.0000 0.0000 0.0000 -7.7618 26.4752 -10.3329 0.0000 0.0000 0.0000 12.5057 5.1820 0.0415 -4.1787 -32.1785 -41.5403 -9.1624 -80.2003 -16.8103 21.3637 -0.5095 -1.0851 0.0000 0.0000 0.0000 -10.5444 -5.8421 0.0180 29.3148 8.7944 -7.8783 175.2130 74.2240 155.5342 -13.7009 1.9353 -0.8499 0.0000 0.0000 0.0000 3.7775 8.7550 -3.6255 -6.3596 -6.1713 42.1990 -24.1639 2.1938 -1.1395 0.0000 0.0000 0.0000
-1.9411 38.1402 7.3418 175.2940 80.2555 175.7250 0.0000 0.0000 0.0000 -7.8211 4.1061 -22.7347 2.7451 4.9639 25.2717 14.3709 -1.2725 -1.3099 0.0000 0.0000 -0.0000 0.0000 0.0000 0.0000 -11.7571 -3.6894 19.8480 17.9547 -8.4513 -4.0559 0.0000 0.0000 0.0000 -8.3018 25.8685 -7.9622 0.0000 0.0000 0.0000 10.0415 4.7300 0.0038 -6.4934 -28.8520 -37.1969 -12.0380 -83.1107 -10.8550 20.6910 -0.6985 -1.0832 0.0000 0.0000 0.0000 -8.6637 -6.1050 -0.0222 31.0107 6.5399 -9.5874 175.3923 74.4979 157.4009 -13.2918 1.7686 -0.8059 0.0000 0.0000 0.0000 5.3945 6.7247 -5.2092 -8.3221 -6.9897 46.2167 -22.4381 1.4161 -4.3803 0.0000 0.0000 0.0000
-2.2598 37.7747 7.1953 178.9380 81.2841 179.0750 0.0000 0.0000 0.0000 -7.2216 4.5492 -24.4763 2.7558 4.5215 27.7687 13.3460 -1.0945 -2.0661 0.0000 0.0000 -0.0000 0.0000 0.0000 0.0000 -12.7422 -2.8689 20.4064 20.5993 -8.6459 -2.3040 0.0000 0.0000 0.0000 -9.0936 25.2991 -4.9471 0.0000 0.0000 0.0000 6.8844 4.5346 -0.0252 -8.0916 -24.9730 -33.5652 -19.5610 -86.1878 0.6748 18.8809 -0.7521 -0.9951 0.0000 0.0000 0.0000 -6.5008 -6.1365 -0.0729 33.4305 4.8225 -11.3290 175.7767 75.1491 161.3552 -12.4544 1.8536 -0.7622 0.0000 0.0000 0.0000 6.9063 5.3713 -6.1394 -3.8424 -3.1406 48.6182 -17.4012 0.7119 -6.9474 0.0000 0.0000 0.0000
-2.6374 37.4748 7.0547 -177.4590 81.9383 -177.6510 0.0000 0.0000 0.0000 -6.6368 3.7188 -25.8650 3.2647 4.9440 29.6343 12.8503 -1.0372 -2.2235 0.0000 0.0000 -0.0000 0.0000 0.0000 0.0000 -14.1776 -1.9001 20.9348 23.2776 -8.9584 -0.2791 0.0000 0.0000 0.0000 -10.1238 24.6587 -1.5281 0.0000 0.0000 0.0000 3.5736 4.4106 -0.0485 -10.0255 -21.0533 -30.4205 -77.5922 -88.8962 63.3465 16.8557 -0.8152 -0.8938 0.0000 0.0000 0.0000 -4.3362 -6.2756 -0.1298 36.5951 3.6387 -13.3949 175.9827 76.5519 165.0459 -11.5919 1.7543 -0.6993 0.0000 0.0000 0.0000 8.4630 4.2367 -6.7123 5.8625 3.7089 49.9313 -11.6044 0.3922 -7.9022 0.0000 0.0000 0.0000
-3.0703 37.1708 6.9226 -173.7170 81.7071 -174.3100 0.0000 0.0000 0.0000 -6.1202 2.0424 -26.9471 3.9619 5.5955 31.2674 12.9276 -1.0065 -2.5584 0.0000 0.0000 -0.0000 0.0000 0.0000 0.0000 -15.5273 -1.0224 21.4076 25.6442 -9.4509 1.9777 0.0000 0.0000 0.0000 -10.7212 23.5943 2.4429 0.0000 0.0000 0.0000 0.7653 4.2700 -0.0596 -13.1090 -17.7790 -27.1577 -162.6982 -87.0422 152.8446 15.8433 -1.1556 -0.8835 0.0000 0.0000 0.0000 -1.7641 -6.3995 -0.2001 40.1746 2.3349 -15.9622 175.7071 78.2465 166.0081 -10.9690 1.1200 -0.6046 0.0000 0.0000 0.0000 10.1658 2.6636 -7.2916 14.7132 9.7687 50.5933 -9.2165 0.2789 -8.5126 0.0000 0.0000 0.0000
-3.5447 36.8186 6.8200 -171.7590 80.1583 -172.6620 0.0000 0.0000 0.0000 -5.9306 -0.0273 -28.0498 4.2206 5.5624 33.1329 13.5865 -0.9563 -3.4293 0.0000 0.0000 -0.0000 0.0000 0.0000 0.0000 -16.6866 -0.4030 21.6584 27.3905 -10.1421 4.3698 0.0000 0.0000 0.0000 -10.4602 21.6473 6.7818 0.0000 0.0000 0.0000 -1.7602 3.9908 -0.0482 -16.7325 -15.3969 -23.7434 -171.8709 -84.6270 164.7607 16.6424 -1.5828 -0.9886 0.0000 0.0000 0.0000 1.1546 -6.1352 -0.2491 44.1154 0.3499 -18.9278 175.0794 79.6930 165.2793 -11.3736 0.7426 -0.5938 0.0000 0.0000 0.0000 11.9071 1.3498 -8.3321 17.9227 12.1674 50.4946 -12.0414 0.1025 -10.8522 0.0000 0.0000 0.0000
-4.0611 36.3880 6.7614 -171.6090 76.9696 -172.6320 0.0000 0.0000 0.0000 -6.0382 -2.6917 -29.3891 3.7224 4.5418 35.5514 14.8594 -0.8848 -4.6945 0.0000 0.0000 -0.0000 0.0000 0.0000 0.0000 -17.5036 -0.0726 21.7242 28.6570 -10.9863 6.7914 0.0000 0.0000 0.0000 -9.8527 19.0631 10.3240 0.0000 0.0000 0.0000 -4.3055 3.7820 -0.0349 -20.9802 -14.0052 -20.2711 -174.5953 -81.9939 167.8561 19.4493 -1.7164 -1.1818 0.0000 0.0000 0.0000 3.5137 -5.6733 -0.2518 48.3635 -1.7049 -22.3458 173.6645 81.7987 163.6993 -13.9412 1.3702 -0.8052 0.0000 0.0000 0.0000 13.6191 1.2705 -10.4733 16.1727 10.8150 50.6481 -17.0038 -0.4027 -14.6236 0.0000 0.0000 0.0000
-4.6116 35.8904 6.7425 -171.5400 71.9684 -172.6740 0.0000 0.0000 0.0000 -6.2310 -6.0223 -30.5767 2.3569 2.7082 38.3454 16.5595 -0.7783 -6.1540 0.0000 0.0000 -0.0000 0.0000 0.0000 0.0000 -17.6780 0.1033 22.0595 29.9169 -11.8312 8.8703 0.0000 0.0000 0.0000 -9.4585 16.1344 12.2733 0.0000 0.0000 0.0000 -6.5945 4.1092 -0.0882 -27.5450 -13.8173 -15.8954 -175.9724 -78.6999 168.3145 23.4992 -1.6487 -1.4234 0.0000 0.0000 0.0000 5.1822 -5.4276 -0.2520 52.1562 -3.1559 -26.2561 169.5337 84.7802 158.2307 -18.3025 2.1803 -1.1804 0.0000 0.0000 0.0000 15.4573 1.4597 -13.8339 12.2769 7.5332 52.1998 -19.9706 -1.0783 -18.1143 0.0000 0.0000 0.0000
